<svg width="376" height="302" xmlns="http://www.w3.org/2000/svg" xmlns:xlink="http://www.w3.org/1999/xlink" overflow="hidden"><defs><clipPath id="clip0"><path d="M315 199 691 199 691 501 315 501Z" fill-rule="evenodd" clip-rule="evenodd"/></clipPath><clipPath id="clip1"><path d="M316 199 690 199 690 500 316 500Z" fill-rule="evenodd" clip-rule="evenodd"/></clipPath><clipPath id="clip2"><path d="M316 199 690 199 690 500 316 500Z" fill-rule="evenodd" clip-rule="evenodd"/></clipPath><clipPath id="clip3"><path d="M316 199 1596 199 1596 500 316 500Z" fill-rule="evenodd" clip-rule="evenodd"/></clipPath></defs><g clip-path="url(#clip0)" transform="translate(-315 -199)"><g clip-path="url(#clip1)"><g clip-path="url(#clip2)"><g clip-path="url(#clip3)"><path d="M233.336 300.269C232.61 300.037 229.882 298.498 227.241 296.844 224.628 295.218 173.427 263.116 113.49 225.528 44.0027 181.932 4.03454 156.709 3.25086 155.925-0.89979 151.803-0.754663 144.344 3.54111 140.309 4.3248 139.584 5.689 138.655 6.61781 138.219L8.27227 137.436 56.3095 137.291 104.376 137.145 82.6356 75.4663C58.8057 7.83688 60.0247 11.6973 61.0696 7.95299 63.8271-1.68348 77.411-2.81547 81.5907 6.24048 83.0129 9.37524 130.673 145.098 130.876 146.666 131.515 151.716 129.134 156.128 124.577 158.276L122.633 159.205 86.2928 159.35 49.9819 159.495 132.559 211.306C177.984 239.809 215.311 263.203 215.514 263.348 215.747 263.464 215.369 262.042 214.644 260.01 213.976 258.037 194.297 201.785 170.931 134.969L128.438 13.4969 128.438 10.8846C128.438 8.56252 128.554 8.06909 129.338 6.38561 131.718 1.3642 137.465-1.16102 142.66 0.522459 143.908 0.89979 176.968 21.0145 256.15 69.5161 317.626 107.162 368.45 138.336 369.117 138.8 370.627 139.816 371.555 141.006 372.6 143.241 373.297 144.75 373.413 145.36 373.384 147.595 373.384 151.107 372.629 153.08 370.394 155.286 368.566 157.115 366.882 158.044 364.589 158.479 363.573 158.653 346.1 158.769 314.433 158.769 275.075 158.769 265.845 158.828 265.961 159.147 266.019 159.35 276.439 188.114 289.094 223.061 302.097 258.995 312.169 287.323 312.314 288.223 312.982 293.012 310.428 297.715 305.987 299.775 304.536 300.472 303.984 300.559 301.43 300.559 298.876 300.559 298.324 300.472 296.873 299.775 294.841 298.818 292.606 296.815 291.793 295.131 290.719 293.041 239.46 150.991 239.141 149.336 238.793 147.479 239.17 144.866 240.012 142.951 240.825 141.122 243.205 138.713 245.178 137.697L246.862 136.855 285.03 136.71 323.199 136.565 243.814 87.9763C200.16 61.2438 163.414 38.749 162.194 37.9654 160.308 36.8043 159.989 36.6882 160.221 37.2397 160.366 37.588 180.103 93.9555 204.02 162.485 233.104 245.672 247.617 287.643 247.762 288.746 248.255 293.099 245.585 297.802 241.492 299.746 239.518 300.704 235.484 300.965 233.336 300.269Z" fill="#7F7F7F" transform="matrix(1 0 0 -1.00098 316.191 500)"/><path d="M577.027 208.374C561.876 206.807 549.511 201.06 539.874 191.075 534.65 185.676 530.905 179.929 528.032 172.905 524.259 163.704 522.72 155.315 522.749 143.85 522.749 130.412 525.245 119.15 530.441 108.991 537.349 95.5519 548.263 86.3218 563.095 81.4455 586.518 73.7538 614.731 79.733 630.173 95.6971 638.416 104.202 643.902 115.754 646.224 129.454 648.517 142.922 647.588 156.418 643.611 168.319 635.862 191.365 617.256 205.965 592.439 208.403 588.927 208.751 580.568 208.722 577.027 208.374ZM591.511 177.723C603.121 175.401 609.506 166.461 610.958 150.642 612.177 137.581 609.855 126.174 604.456 118.569 602.889 116.334 599.377 113.054 597.258 111.777 591.366 108.294 583.383 107.598 576.882 110.007 568.929 112.967 562.979 120.485 560.366 130.905 557.057 143.995 559.031 159.379 565.214 168.464 570.641 176.475 580.51 179.958 591.511 177.723Z" fill="#7F7F7F" transform="matrix(1 0 0 -1.00098 316.191 500)"/><path d="M1016.71 208.403C1008.32 206.894 1002.19 200.479 1001.09 192.12 1000.86 190.407 1000.8 174.821 1000.86 140.338 1000.94 93.288 1000.97 90.9079 1001.47 89.3985 1002.42 86.5831 1003.7 84.5223 1005.73 82.6066 1008.98 79.5589 1012.21 78.3688 1017.2 78.3688 1022.34 78.3688 1025.82 79.675 1028.92 82.7227 1030.72 84.4932 1031.86 86.2638 1032.81 88.76 1033.45 90.4144 1033.45 90.5886 1033.6 117.002L1033.74 143.618 1054.5 113.257C1065.9 96.5388 1075.77 82.3163 1076.41 81.6197 1078.7 79.0655 1081.49 78.3688 1089.3 78.3688 1095.05 78.3688 1096.73 78.6591 1099.6 80.1975 1101.87 81.3875 1104.59 84.1159 1105.78 86.3799 1107.7 90.0081 1107.61 86.6121 1107.61 143.096 1107.61 199.957 1107.73 196.125 1105.64 200.102 1102.19 206.72 1093.85 210.174 1086.63 207.968 1081.66 206.458 1077.28 202.192 1075.66 197.228 1075.34 196.299 1075.22 190.407 1075.1 169.103L1074.96 142.138 1067.59 152.993C1049.5 179.552 1035.17 200.276 1032.58 203.527 1029.91 206.923 1026.57 208.403 1021.26 208.548 1019.52 208.606 1017.46 208.548 1016.71 208.403Z" fill="#7F7F7F" transform="matrix(1 0 0 -1.00098 316.191 500)"/><path d="M1258.63 208.403C1252.6 207.3 1247.92 203.295 1245.51 197.112L1244.76 195.196 1244.67 144.489C1244.58 88.5858 1244.5 91.6335 1246.41 87.7151 1247.72 85.0157 1251.32 81.4165 1253.93 80.1684 1257.62 78.3979 1261.94 77.9044 1265.77 78.8042 1270.39 79.9072 1274.95 83.5354 1276.98 87.7731 1278.98 91.9238 1278.89 89.2824 1278.81 144.721L1278.72 194.616 1277.91 196.938C1275.47 203.846 1269.78 208.171 1262.7 208.548 1261.3 208.606 1259.47 208.548 1258.63 208.403Z" fill="#7F7F7F" transform="matrix(1 0 0 -1.00098 316.191 500)"/><path d="M680.009 207.387C674.611 206.052 669.967 201.495 668.341 195.951 667.935 194.529 667.877 189.246 667.877 143.589L667.877 92.8526 668.602 90.6466C670.373 85.393 674.059 81.7358 679.342 79.9652 681.983 79.0655 685.756 78.8913 688.485 79.5008 694.725 80.9521 699.776 86.1477 701.111 92.4462 701.459 94.1007 701.546 97.5547 701.546 110.645L701.546 126.812 716.436 126.929C732.894 127.045 732.807 127.045 738.844 129.163 750.28 133.198 759.597 142.776 763.516 154.503 764.967 158.857 765.49 162.253 765.49 167.332 765.49 172.15 765.054 175.14 763.661 179.668 759.917 191.8 750.164 201.727 737.973 205.762 732.023 207.735 733.503 207.648 706.336 207.706 685.931 207.765 681.374 207.706 680.009 207.387ZM720.906 178.536C727.321 177.607 731.791 171.744 730.833 165.619 730.049 160.83 726.16 156.941 721.342 156.128 720.442 155.983 715.595 155.867 710.631 155.867L701.546 155.867 701.546 167.332 701.546 178.797 710.341 178.797C715.159 178.797 719.919 178.681 720.906 178.536Z" fill="#7F7F7F" transform="matrix(1 0 0 -1.00098 316.191 500)"/><path d="M1133.01 207.213C1130.83 206.894 1127.61 205.326 1125.75 203.701 1123.93 202.105 1122.27 199.492 1121.55 197.141 1120.85 194.877 1120.73 189.072 1121.37 186.779 1122.33 183.18 1125.29 179.378 1128.48 177.665 1131.62 176.011 1132.6 175.895 1146.3 175.895L1158.7 175.895 1158.7 135.491C1158.7 90.7337 1158.61 92.9106 1160.61 88.8761 1162.5 85.0447 1165.81 82.1422 1170.25 80.4587 1171.96 79.7911 1172.63 79.704 1175.82 79.704 1179.02 79.704 1179.68 79.7911 1181.4 80.4587 1185.84 82.1422 1189.15 85.0447 1191.03 88.8761 1193.04 92.9106 1192.95 90.7337 1192.95 135.491L1192.95 175.895 1205.37 175.895C1218.81 175.895 1219.91 176.011 1222.9 177.52 1226.15 179.174 1229.32 183.122 1230.27 186.75 1230.91 189.101 1230.8 194.877 1230.1 197.141 1228.5 202.366 1223.69 206.487 1218.35 207.242 1215.82 207.59 1135.51 207.561 1133.01 207.213Z" fill="#7F7F7F" transform="matrix(1 0 0 -1.00098 316.191 500)"/><path d="M797.476 206.662C793.557 206.139 790.597 204.63 787.578 201.611 785.111 199.144 783.543 196.183 782.934 192.787 782.324 189.333 782.353 95.0875 782.963 92.156 784.182 86.3509 788.71 81.7358 794.341 80.5458 797.359 79.9072 852.363 79.9072 855.062 80.5458 862.464 82.2873 867.34 89.5727 866.179 97.1774 865.25 103.157 860.606 108.207 854.859 109.397 853.843 109.6 847.283 109.716 835.209 109.716L817.068 109.716 817.01 151.455 816.923 193.165 816.139 195.313C813.294 203.091 805.661 207.735 797.476 206.662Z" fill="#7F7F7F" transform="matrix(1 0 0 -1.00098 316.191 500)"/><path d="M421.015 205.181C414.6 202.975 411.059 196.706 412.104 189.507 412.685 185.502 414.687 182.193 417.793 180.132 421.102 177.926 419.302 178.1 444.758 177.926L467.601 177.781 437.995 141.209C421.682 121.094 408.011 103.998 407.576 103.186 406.879 101.85 406.792 101.415 406.705 97.7289 406.618 94.3329 406.676 93.4621 407.199 91.7786 408.737 86.6411 413.265 82.5195 418.519 81.3875 420.115 81.0682 427.575 80.9811 462.986 80.9811 492.301 80.9811 506.06 81.0682 507.25 81.3004 514.535 82.6356 519.556 89.6888 518.482 97.0903 517.728 102.373 514.448 106.204 508.701 108.526 507.627 108.933 504.637 109.02 480.256 109.136L453.001 109.281 480.604 141.354C510.094 175.575 509.601 174.937 511.139 179.813 511.691 181.525 511.807 182.716 511.952 187.214 512.097 193.107 511.894 194.761 510.675 197.373 509.02 200.973 505.943 203.788 502.199 205.094L500.254 205.791 461.505 205.762C423.221 205.762 422.727 205.762 421.015 205.181Z" fill="#7F7F7F" transform="matrix(1 0 0 -1.00098 316.191 500)"/><path d="M892.998 205.355C887.222 203.759 882.462 198.825 881.069 192.991 880.692 191.365 880.634 185.067 880.634 143.386 880.634 101.212 880.692 95.4068 881.069 93.8975 882.753 87.4538 887.629 82.7807 894.072 81.4455 896.017 81.0392 900.516 80.9811 931.341 80.9811 969.219 80.9811 968.61 80.9811 971.687 82.5195 975.257 84.3481 977.927 87.4829 979.059 91.1981 979.582 92.8526 979.64 93.7524 979.582 96.5969 979.465 99.8187 979.407 100.109 978.392 102.257 976.505 106.175 973.312 108.904 969.19 110.123 967.797 110.529 964.546 110.587 941.674 110.587L915.755 110.587 915.755 120.166 915.755 129.715 939.933 129.802 964.082 129.889 966.056 130.818C968.639 132.037 970.119 133.227 971.658 135.317 973.805 138.248 974.705 142.08 974.096 145.679 973.167 151.281 968.813 155.867 963.414 156.999 962.369 157.202 954.474 157.318 938.83 157.318L915.755 157.318 915.755 166.751 915.755 176.156 941.965 176.243 968.146 176.33 969.858 176.997C974.589 178.768 977.84 182.164 979.146 186.605 979.843 188.985 979.785 193.716 979.001 195.98 977.753 199.753 974.996 202.801 971.251 204.572L969.016 205.646 931.719 205.704C901.155 205.733 894.159 205.675 892.998 205.355Z" fill="#7F7F7F" transform="matrix(1 0 0 -1.00098 316.191 500)"/></g></g></g></g></svg>